<svg xmlns="http://www.w3.org/2000/svg" version="1.1" viewBox="-5.0 -10.0 110.0 135.0">
 <path d="m68.418 30.77c-5.957-0.003906-10.781-4.8359-10.781-10.789v-12.605h-30.355c-4.6016 0-8.332 3.7305-8.332 8.332v68.605c0 2.2109 0.875 4.3281 2.4414 5.8906 1.5625 1.5664 3.6797 2.4414 5.8906 2.4414h45.438c2.2109 0 4.3281-0.875 5.8906-2.4414 1.5664-1.5625 2.4414-3.6797 2.4414-5.8906v-53.543zm-22.48 8.5312c0-1.1484 0.93359-2.082 2.082-2.082h1.6992c2.418-0.082031 4.7617 0.82031 6.5 2.5s2.7227 3.9922 2.7227 6.4102c0 2.418-0.98438 4.7344-2.7227 6.4141-1.7383 1.6797-4.082 2.582-6.5 2.5h-1.6992c-1.1484 0-2.082-0.93359-2.082-2.0859zm-14.688 7.8438v-7.8438c0-1.1484 0.93359-2.082 2.082-2.082h3.918c1.6367-0.066406 3.2305 0.53516 4.4102 1.668 1.1836 1.1328 1.8516 2.6992 1.8516 4.3359 0 1.6406-0.66797 3.207-1.8516 4.3398-1.1797 1.1328-2.7734 1.7344-4.4102 1.668h-1.832v3.7305-0.003907c0 1.1523-0.93359 2.0859-2.0859 2.0859-1.1484 0-2.082-0.93359-2.082-2.0859zm1.043 14.094h5.5508c1.1523 0 2.082 0.93359 2.082 2.0859 0 1.1484-0.92969 2.082-2.082 2.082h-5.5508c-1.1523 0-2.0859-0.93359-2.0859-2.082 0-1.1523 0.93359-2.0859 2.0859-2.0859zm24.07 20.898h-24.07c-1.1523 0-2.0859-0.93359-2.0859-2.0859 0-1.1484 0.93359-2.082 2.0859-2.082h24.07c1.1523 0 2.0859 0.93359 2.0859 2.082 0 1.1523-0.93359 2.0859-2.0859 2.0859zm11.355 0h-4.0625c-1.1523 0-2.082-0.93359-2.082-2.0859 0-1.1484 0.92969-2.082 2.082-2.082h4.0508c1.1523 0 2.0859 0.93359 2.0859 2.082 0 1.1523-0.93359 2.0859-2.0859 2.0859zm0-8.332-35.426-0.003907c-1.1523 0-2.0859-0.92969-2.0859-2.082s0.93359-2.082 2.0859-2.082h35.414c1.1523 0 2.0859 0.92969 2.0859 2.082s-0.93359 2.082-2.0859 2.082zm0-8.332-22.594-0.003906c-1.1523 0-2.082-0.93359-2.082-2.082 0-1.1523 0.92969-2.0859 2.082-2.0859h22.582c1.1523 0 2.0859 0.93359 2.0859 2.0859 0 1.1484-0.93359 2.082-2.0859 2.082zm1.043-21.355v-0.003907c1.1484 0 2.082 0.93359 2.082 2.0859 0 1.1484-0.93359 2.082-2.082 2.082h-3.6172v4.7383c0 1.1523-0.92969 2.0859-2.082 2.0859s-2.082-0.93359-2.082-2.0859v-13.719c0-1.1484 0.92969-2.082 2.082-2.082h5.6875c1.1523 0 2.082 0.93359 2.082 2.082 0 1.1523-0.92969 2.0859-2.082 2.0859h-3.6055v2.668zm-6.9609-24.137v-11.75l18.02 18.375h-11.402c-3.6562-0.007813-6.6172-2.9727-6.6172-6.625zm-11.695 30.883v-9.4688c2.4648 0.20312 4.3633 2.2617 4.3633 4.7344 0 2.4766-1.8984 4.5352-4.3633 4.7344zm-14.688-5.8008v-3.6758h1.832c0.51172-0.039063 1.0156 0.13672 1.3906 0.48438 0.37891 0.35156 0.58984 0.83984 0.58984 1.3516 0 0.51562-0.21094 1.0039-0.58984 1.3516-0.375 0.35156-0.87891 0.52734-1.3906 0.48828z"/>
</svg>