<svg xmlns="http://www.w3.org/2000/svg" version="1.1" viewBox="-5.0 -10.0 110.0 135.0">
 <g>
  <path d="m43.297 20.375-2.875 0.89062c-1.0938-0.625-2.3281-0.95312-3.5938-0.95312-3.75 0-6.8594 2.875-7.4688 6.6406-1.0469 0.078125-2.6875 0.03125-4.125-0.84375s-2.4219-2.4062-2.9375-4.5938c-0.15625-0.67188-0.73438-1.1562-1.4219-1.2031-0.67188-0.03125-1.3281 0.35938-1.5625 1.0156-1.5625 4.1562-2.5625 13.031 4.7344 16.938 0.76562 0.40625 1.7031 0.125 2.1094-0.64062s0.125-1.7031-0.64062-2.1094c-3.75-2-4.375-5.75-4.1719-8.7188 0.64062 0.8125 1.4062 1.4844 2.2969 2.0156 3.4688 2.0781 7.4062 1.0625 7.5781 1.0156 0.6875-0.1875 1.1562-0.79688 1.1562-1.5156 0-2.6875 2-4.875 4.4531-4.875 0.875 0 1.7188 0.28125 2.4531 0.79688 0.39062 0.28125 0.90625 0.375 1.375 0.23438l0.59375-0.1875-0.34375 0.96875c-0.125 0.35938-0.125 0.75 0.015625 1.1094 0.25 0.60938 0.375 1.2656 0.375 1.9375 0 3.1406-1.7344 9.2344-6.4062 12.172-3.9531 2.5-9.1562 2.25-15.438-0.73438-0.78125-0.375-1.7188-0.046875-2.0781 0.73438-0.375 0.78125-0.03125 1.7188 0.73438 2.0781 4.1875 1.9844 7.7031 2.7188 10.609 2.7188 3.4219 0 6.0156-1.0156 7.8438-2.1719 5.7656-3.6406 7.8594-10.859 7.8594-14.828 0-0.85938-0.125-1.7031-0.39062-2.5156l1.2031-3.3906c0.20312-0.5625 0.0625-1.1719-0.34375-1.6094-0.40625-0.42188-1.0156-0.57812-1.5938-0.40625z"/>
  <path d="m82.75 48.047c4.8125-4.0156 7.875-10.047 7.875-16.797 0-12.062-9.8125-21.875-21.875-21.875-6.75 0-12.781 3.0625-16.797 7.875-4.625-6.8281-12.359-11-20.703-11-13.781 0-25 11.219-25 25 0 7.9375 3.8594 15.438 10.188 20.109-5.3594 4.0938-8.625 10.547-8.625 17.391 0 12.062 9.8125 21.875 21.875 21.875 7.0469 0 13.578-3.3906 17.656-8.9844 4.4844 7.4219 12.609 12.109 21.406 12.109 13.781 0 25-11.219 25-25 0-8.3438-4.1719-16.078-11-20.703zm-20.25-18.359h3.125v-6.25c0-2.5781 2.1094-4.6875 4.6875-4.6875h4.6875c0.85938 0 1.5625 0.70312 1.5625 1.5625s-0.70312 1.5625-1.5625 1.5625h-4.6875c-0.85938 0-1.5625 0.70312-1.5625 1.5625v6.25h4.6875c0.85938 0 1.5625 0.70312 1.5625 1.5625s-0.70312 1.5625-1.5625 1.5625h-4.6875v10.938c0 0.85938-0.70312 1.5625-1.5625 1.5625s-1.5625-0.70312-1.5625-1.5625v-10.938h-3.125c-0.85938 0-1.5625-0.70312-1.5625-1.5625s0.70312-1.5625 1.5625-1.5625zm-26.641 39.297-10.781 6.0156s-0.078125-0.046875-0.078125-0.21875v-12.062c0-0.10938 0.03125-0.17188 0.03125-0.20312l10.828 6s0.078125 0.125 0.078125 0.23438-0.03125 0.20312-0.078125 0.23438zm-4.6094-15.859c-3.9531 0-7.8438-1.0781-11.234-3.1094-6.5625-3.9375-10.641-11.125-10.641-18.766 0-12.062 9.8125-21.875 21.875-21.875 7.7031 0 14.812 4.0625 18.766 10.641-1.9844 3.2969-3.1406 7.125-3.1406 11.234s1.1562 7.9375 3.1406 11.234c-2.1875 3.625-5.3125 6.5312-9.125 8.4062-2.9688 1.4688-6.2969 2.2344-9.6406 2.2344zm13.109-0.59375c3.0156-1.8594 5.5938-4.3438 7.5938-7.2812 0.84375 1.0156 1.7812 1.9531 2.7969 2.7969-2.9844 2.0312-5.5312 4.7188-7.4062 7.8281-0.875-1.2188-1.875-2.3438-2.9844-3.3438zm24.391 38.094c-8.2812 0-15.859-4.7188-19.547-12.094 1.5312-3.0156 2.3594-6.375 2.3594-9.7812s-0.82812-6.7656-2.3594-9.7812c1.8594-3.7031 4.7656-6.8438 8.3281-8.9844 3.2812 1.9844 7.1094 3.1406 11.219 3.1406s7.9375-1.1562 11.234-3.1406c6.5781 3.9531 10.641 11.062 10.641 18.766 0 12.062-9.8125 21.875-21.875 21.875z"/>
  <path d="m75 56.25h-12.5c-3.4531 0-6.25 2.7969-6.25 6.25v12.5c0 3.4531 2.7969 6.25 6.25 6.25h12.5c3.4531 0 6.25-2.7969 6.25-6.25v-12.5c0-3.4531-2.7969-6.25-6.25-6.25zm3.125 18.75c0 1.7188-1.4062 3.125-3.125 3.125h-12.5c-1.7188 0-3.125-1.4062-3.125-3.125v-12.5c0-1.7188 1.4062-3.125 3.125-3.125h12.5c1.7188 0 3.125 1.4062 3.125 3.125z"/>
  <path d="m68.75 62.5c-3.4531 0-6.25 2.7969-6.25 6.25s2.7969 6.25 6.25 6.25 6.25-2.7969 6.25-6.25-2.7969-6.25-6.25-6.25zm0 9.375c-1.7188 0-3.125-1.4062-3.125-3.125s1.4062-3.125 3.125-3.125 3.125 1.4062 3.125 3.125-1.4062 3.125-3.125 3.125z"/>
 </g>
</svg>