<svg xmlns="http://www.w3.org/2000/svg" version="1.1" viewBox="-5.0 -10.0 110.0 135.0">
 <path d="m96.914 28.516-4.9727 15.848c-0.32812 1.0547-1.4492 1.6367-2.5 1.3125-0.32031-0.097656-0.59766-0.27344-0.82031-0.49609-0.71875-0.71484-1.6602-1.0742-2.5977-1.0742s-1.8828 0.35938-2.5977 1.0742c-0.71875 0.71875-1.0781 1.6602-1.0781 2.5977 0 0.94531 0.35938 1.8906 1.0781 2.6055 0.77344 0.78125 0.76953 2.0391-0.007812 2.8125l-34.68 34.688-0.070312 0.078126-0.078125 0.070312-8.5977 8.6016c-0.78125 0.78125-2.0469 0.78125-2.8281 0l-33.805-33.805c-0.78125-0.78125-0.78125-2.0469 0-2.8281l43.434-43.43c0.78125-0.78125 2.0469-0.78125 2.8281 0 0.71875 0.71875 1.6562 1.0742 2.5977 1.0742 0.9375 0 1.8828-0.35938 2.5977-1.0781 0.71875-0.71875 1.0742-1.6562 1.0742-2.5938 0-0.94141-0.35938-1.8828-1.0703-2.6016-0.78516-0.77734-0.78516-2.043-0.007812-2.8242 0.26562-0.26562 0.58203-0.4375 0.91797-0.52344l15.859-4.9766c0.73047-0.22656 1.4961-0.011719 2.0078 0.49609l5.2773 5.2773c2.7344-2.5352 5.6836-4.3672 8.332-5.3047 3.3945-1.2031 6.4492-0.99219 8.3555 0.91016 1.9062 1.9062 2.1133 4.9609 0.91016 8.3555-0.9375 2.6445-2.7656 5.5977-5.3047 8.3359l5.2773 5.2773c0.57422 0.57422 0.72656 1.4062 0.46094 2.1172zm-80.637 24.234 30.977 30.977 32.121-32.117c-0.67969-1.1836-1.0234-2.5039-1.0234-3.8242 0-1.9609 0.75391-3.9258 2.25-5.4258 1.4961-1.4961 3.4648-2.2461 5.4258-2.2461 0.98047 0 1.9648 0.1875 2.8906 0.5625l3.8594-12.301-13.812-13.812c-1.2344 1.5195-2.1992 3.0586-2.8555 4.5078 1.1133 0.3125 2.168 0.90625 3.0469 1.7812 1.3594 1.3555 2.0391 3.1445 2.0391 4.9336 0.007813 1.7773-0.67578 3.5625-2.0391 4.9297-1.3516 1.3633-3.1406 2.0391-4.9297 2.0391-1.7852 0.007813-3.5742-0.67188-4.9336-2.0352l-0.12109-0.13281c-1.2812-1.3477-1.9219-3.0781-1.9219-4.8008 0-1.7773 0.68359-3.5625 2.043-4.9258 0.72266-0.73047 1.5664-1.2617 2.4688-1.6016l0.14062-0.41797c0.80078-2.2578 2.25-4.7383 4.2344-7.1172l-4.4961-4.4961-12.305 3.8594c0.37891 0.92578 0.56641 1.9062 0.56641 2.8906 0 1.9609-0.75 3.9258-2.2422 5.4219-1.4961 1.4961-3.4648 2.25-5.4258 2.25-1.3203 0-2.6445-0.33984-3.8242-1.0195l-32.117 32.117zm28.145 33.805-30.977-30.977-5.8477 5.8477 30.977 30.977zm37.277-74.906 6.6523 6.6484c2.1094-2.2891 3.6094-4.7031 4.3633-6.8359 0.67969-1.9258 0.74219-3.4805 0.027344-4.1953-0.71875-0.71875-2.2734-0.65625-4.1992 0.023437-2.1328 0.75781-4.5469 2.2578-6.8359 4.3594zm-6.0703 12.723c0.78125 0.78125 0.78125 2.0469 0 2.8281s-2.0469 0.78125-2.8281 0c-0.67188-0.67188-1.1328-1.4883-1.3945-2.4102-0.11328 0.32031-0.17188 0.66016-0.17188 1 0 0.73047 0.26172 1.4609 0.78125 2.0234l0.085937 0.085938c0.58203 0.58203 1.3438 0.87109 2.1055 0.87109 0.75781 0.007813 1.5195-0.28516 2.1055-0.87109 0.58203-0.57422 0.87109-1.3398 0.875-2.1055 0.003906-0.75781-0.28906-1.5195-0.87891-2.1055-0.34375-0.34766-0.75781-0.58984-1.1992-0.73047 0.023437 0.61328 0.1875 1.1016 0.51172 1.4219z"/>
</svg>